<svg width="62" height="29" viewBox="0 0 62 29" fill="none" xmlns="http://www.w3.org/2000/svg">
<path d="M31.0835 0.892546C30.9936 1.08069 30.7957 1.57559 30.166 3.20345C29.8422 4.02557 29.5633 4.74952 29.5363 4.81905C28.6188 7.14632 28.0251 8.65148 27.9172 8.90915C27.8452 9.08912 27.5394 9.86215 27.2425 10.627C26.9367 11.3918 26.6488 12.1281 26.5859 12.263L26.4779 12.5084L25.3535 12.5984C20.3881 12.987 18.7869 13.1138 17.8874 13.1874C17.3207 13.2324 16.6281 13.2856 16.3582 13.306C16.0883 13.3265 14.7121 13.4328 13.2998 13.5473C11.8875 13.6619 9.68368 13.8336 8.39735 13.9359C4.70028 14.2222 1.31804 14.4921 0.976216 14.5249C0.598413 14.5617 0.769324 14.578 8.03754 15.1629C10.3313 15.347 16.7 15.8664 17.3477 15.9237C17.6175 15.9482 18.8769 16.0505 20.1362 16.1527C24.1481 16.4758 26.37 16.664 26.433 16.6804C26.4689 16.6885 26.5409 16.8031 26.6039 16.9339C26.6938 17.1425 28.358 21.3308 28.7178 22.2633C28.7897 22.4556 28.9516 22.8605 29.0776 23.1632C29.3115 23.7481 29.7342 24.8238 30.4808 26.7216C30.7327 27.3637 30.9846 27.9772 31.0386 28.0917C31.1375 28.2922 31.1465 28.2922 31.2095 28.1735C31.2814 28.0468 31.6772 27.0529 32.8556 24.0221C32.9905 23.6867 33.2424 23.0446 33.8091 21.6089C33.953 21.2367 34.1329 20.7786 34.2049 20.5864C34.7086 19.2653 35.7161 16.7213 35.7521 16.6967C35.7701 16.6804 36.1659 16.6395 36.6157 16.6026C37.0744 16.5658 37.6591 16.5167 37.902 16.4922C38.1538 16.4718 39.1613 16.3859 40.1508 16.3082C41.1403 16.2304 42.6155 16.1118 43.4341 16.0423C44.2527 15.9769 45.629 15.8664 46.4925 15.7969C47.3561 15.7274 48.4715 15.6374 48.9662 15.5965C49.461 15.5556 50.8013 15.4451 51.9347 15.3511C53.0771 15.2611 54.3454 15.1547 54.7682 15.122C56.3244 14.9952 59.6077 14.7335 60.4622 14.668C61.3078 14.6026 61.5057 14.5617 61.1819 14.5167C61.0199 14.4962 59.4368 14.3694 56.2974 14.124C55.4338 14.0586 54.2555 13.9645 53.6888 13.9195C52.2945 13.8091 47.5989 13.4369 42.8044 13.0647C41.9409 12.9952 40.6635 12.897 39.9709 12.8397C39.2783 12.7866 38.0639 12.6925 37.2723 12.6311C36.4807 12.5698 35.8061 12.5044 35.7701 12.4921C35.7431 12.4798 35.5092 11.9236 35.2484 11.261C34.9965 10.5984 34.6637 9.75171 34.5197 9.37951C34.3758 9.00731 34.079 8.23428 33.8541 7.66167C33.6292 7.08905 33.3593 6.41419 33.2694 6.16878C33.1704 5.91928 32.6757 4.66771 32.181 3.38751C31.6772 2.10322 31.2454 0.990709 31.2095 0.912996L31.1465 0.769842L31.0835 0.892546Z" fill="#FF5443"/>
</svg>
