<svg width="30" height="30" viewBox="0 0 30 30" fill="none" xmlns="http://www.w3.org/2000/svg">
<path d="M15 1.95652C18.4582 1.96032 21.7736 3.33576 24.2189 5.78106C26.6642 8.22636 28.0397 11.5418 28.0435 15C28.0497 17.0987 27.5438 19.1672 26.5696 21.0261C25.6265 22.8241 24.2811 24.3801 22.6383 25.573C20.4152 27.179 17.7425 28.0435 15 28.0435C12.2575 28.0435 9.5848 27.179 7.36174 25.573C5.71815 24.3805 4.37228 22.8244 3.42914 21.0261C2.45536 19.1671 1.94987 17.0986 1.95653 15C1.96033 11.5418 3.33576 8.22636 5.78107 5.78106C8.22637 3.33576 11.5418 1.96032 15 1.95652ZM15 0C12.0333 0 9.13319 0.879735 6.66645 2.52796C4.19972 4.17618 2.27713 6.51886 1.14181 9.25975C0.00649925 12.0006 -0.290551 15.0166 0.288227 17.9264C0.867006 20.8361 2.29562 23.5088 4.3934 25.6066C6.49119 27.7044 9.16393 29.133 12.0736 29.7118C14.9834 30.2906 17.9994 29.9935 20.7403 28.8582C23.4811 27.7229 25.8238 25.8003 27.472 23.3335C29.1203 20.8668 30 17.9667 30 15C30 11.0217 28.4196 7.20644 25.6066 4.3934C22.7936 1.58035 18.9783 0 15 0Z" fill="#262626"/>
<path d="M15.9483 18.9236C17.5073 18.9256 19.0019 19.546 20.1042 20.6485C21.2065 21.7511 21.8265 23.2458 21.8283 24.8049V26.1092C19.7735 27.3698 17.41 28.037 14.9994 28.037C12.5888 28.037 10.2252 27.3698 8.17045 26.1092V24.8049C8.17218 23.2458 8.79219 21.7511 9.89449 20.6485C10.9968 19.546 12.4914 18.9256 14.0504 18.9236H15.9483ZM15.9483 16.967H14.0504C13.0212 16.967 12.0021 17.1698 11.0512 17.5637C10.1004 17.9576 9.23644 18.5349 8.50873 19.2628C7.78103 19.9906 7.20382 20.8546 6.81007 21.8056C6.41633 22.7565 6.21376 23.7756 6.21393 24.8049V27.1527C8.77072 29.0002 11.8449 29.9947 14.9994 29.9947C18.1538 29.9947 21.228 29.0002 23.7848 27.1527V24.8049C23.785 23.7756 23.5824 22.7565 23.1886 21.8056C22.7949 20.8546 22.2177 19.9906 21.49 19.2628C20.7623 18.5349 19.8983 17.9576 18.9475 17.5637C17.9966 17.1698 16.9775 16.967 15.9483 16.967Z" fill="#262626"/>
<path d="M15 9.56223C15.4855 9.56223 15.9602 9.70624 16.3639 9.97603C16.7676 10.2458 17.0823 10.6293 17.268 11.0779C17.4538 11.5265 17.5023 12.0202 17.4075 12.4964C17.3127 12.9726 17.0788 13.41 16.7353 13.7533C16.3919 14.0965 15.9544 14.3302 15.4781 14.4248C15.0018 14.5194 14.5082 14.4706 14.0597 14.2846C13.6111 14.0986 13.2278 13.7837 12.9583 13.3799C12.6887 12.976 12.5449 12.5013 12.5452 12.0157C12.5459 11.365 12.8048 10.7411 13.265 10.2811C13.7253 9.82114 14.3493 9.56258 15 9.56223ZM15 7.60571C14.1274 7.60546 13.2743 7.86399 12.5487 8.34861C11.8231 8.83323 11.2575 9.52217 10.9234 10.3283C10.5894 11.1344 10.5019 12.0215 10.6721 12.8773C10.8422 13.7331 11.2624 14.5193 11.8794 15.1363C12.4964 15.7533 13.2826 16.1735 14.1384 16.3436C14.9942 16.5138 15.8813 16.4263 16.6874 16.0923C17.4935 15.7582 18.1825 15.1926 18.6671 14.467C19.1517 13.7414 19.4102 12.8883 19.41 12.0157C19.4096 10.8462 18.9449 9.72471 18.1179 8.89775C17.291 8.07079 16.1695 7.60606 15 7.60571Z" fill="#262626"/>
</svg>
