<svg width="29" height="16" viewBox="0 0 29 16" fill="none" xmlns="http://www.w3.org/2000/svg">
<path d="M0.950542 0C1.93492 0 3.43492 0 4.27867 0C4.70054 0 5.02867 0.253034 5.16929 0.590413C5.59117 1.68689 6.52867 4.09072 7.60679 5.73544C9.05992 7.88623 9.99742 8.6875 10.6068 8.60316C11.2162 8.47664 11.0287 7.04278 11.0287 5.90413C11.0287 4.76547 11.1693 2.82555 10.5599 1.93993L9.62242 0.71693C9.38804 0.421724 9.62242 0.0421725 9.99742 0.0421725H15.3412C15.8568 0.0421725 16.2787 0.421723 16.2787 0.885619V7.00061C16.2787 7.00061 16.513 8.09709 17.8255 6.95843C19.138 5.81978 20.5443 3.71117 21.7162 1.56038L22.1849 0.54824C22.3255 0.253034 22.6537 0.0421725 23.0287 0.0421725H26.4974C27.1537 0.0421725 27.6224 0.632585 27.388 1.18083L27.013 2.06644C27.013 2.06644 25.7474 4.34375 24.4349 5.9463C23.1224 7.59102 22.8412 7.97057 23.0287 8.39229C23.2162 8.81402 26.5912 11.6396 27.4349 12.9891C27.6693 13.3686 27.8568 13.706 28.0443 14.0012C28.3724 14.5495 27.9037 15.2664 27.2005 15.2664H23.263C22.9349 15.2664 22.6068 15.0977 22.4662 14.8447L22.0912 14.2964C22.0912 14.2964 19.7005 11.7661 18.2474 10.9648C16.7474 10.2057 16.7943 11.3022 16.7943 11.3022V13.5373C16.7943 14.4651 15.9505 15.2242 14.9193 15.2242H13.9818C13.9818 15.2242 8.82554 15.2242 4.70054 9.69964C1.46617 5.39806 0.388042 2.61468 0.013042 1.01214C-0.080708 0.506068 0.341167 0 0.950542 0Z" fill="#F6F7F2"/>
</svg>
